<?xml version="1.0" encoding="UTF-8"?>
<svg version="1.1" xmlns="http://www.w3.org/2000/svg" width="456" height="457">
<path d="M0 0 C12.98541781 7.61595721 25.87531813 10.6613341 40.8125 7 C50.12687655 4.77688225 62.81850104 3.94369612 71.6875 7.9375 C78.7974437 12.35923177 83.37805251 19.16082876 87.9375 26 C96.28554949 36.59338694 105.07604364 41.40674621 117.57910156 45.93383789 C127.16431126 49.51574788 134.41860031 54.55804165 138.9375 64 C140.08840454 67.85165732 140.74376578 71.72181196 141.375 75.6875 C144.02860064 90.02957967 149.81821616 100.74644508 157.921875 112.74609375 C162.61069631 120.31545063 164.12063316 126.91958592 164.1875 135.6875 C164.208125 136.34427734 164.22875 137.00105469 164.25 137.67773438 C164.32991321 148.01650638 160.30513841 155.69767915 154.5 164 C146.43603634 175.61065634 143.25337346 186.01614112 140.95898438 199.8984375 C139.4327445 208.32615935 137.0451422 215.47317493 129.75 220.5625 C124.3868628 224.10313399 118.61389351 226.16054333 112.62670898 228.37963867 C99.54795799 233.30110193 91.19963714 240.60417033 83.4375 252.125 C79.09679797 258.4539601 73.81863882 264.22282234 66.29296875 266.56640625 C56.73278144 268.32624173 47.21285012 266.80288656 37.77416992 265.06787109 C21.71574386 262.18607159 9.47441758 266.71927056 -4.1875 275.125 C-13.65485967 280.81127795 -22.39788186 282.91490777 -33.5546875 280.44921875 C-39.38202752 278.32193719 -44.67823029 274.98130766 -50.0625 271.9375 C-63.40959819 264.40166134 -73.69517645 262.37163896 -88.9375 265.5 C-99.99514067 267.75028524 -110.950523 268.93259596 -121.0625 263 C-128.17660575 258.19027502 -133.39754903 251.11620993 -138.0625 244 C-138.0625 243.34 -138.0625 242.68 -138.0625 242 C-138.9596875 241.59007812 -138.9596875 241.59007812 -139.875 241.171875 C-141.99082889 240.03839524 -143.35073882 238.90826864 -145.0625 237.25 C-151.58728634 231.54428258 -159.67887173 228.45111433 -167.75 225.5625 C-177.03868255 222.04726205 -182.66781757 217.75376611 -186.96484375 208.77124023 C-188.72730015 204.32158663 -189.39521986 199.84315075 -190.0625 195.125 C-192.10963725 182.62745641 -195.81515001 173.46304166 -203.0625 163.03125 C-211.11126619 150.83233874 -214.22079243 139.09050267 -211.4140625 124.66796875 C-209.16140542 117.3227664 -205.35405064 111.31165148 -201.0625 105 C-194.4429342 94.8426615 -190.94048784 85.13832174 -189.1887207 73.18920898 C-187.72868924 63.64682038 -184.86866697 57.01373595 -177.0625 51 C-172.40375344 48.32401597 -167.45227758 46.50240088 -162.41015625 44.6796875 C-148.40138429 39.5447486 -139.91661074 31.63239647 -131.47265625 19.453125 C-126.8325302 12.76430167 -123.09467867 8.32914011 -115.0625 6 C-104.50879187 4.62131636 -94.0373189 6.16243325 -83.64697266 7.98657227 C-68.31519754 10.59326313 -57.61291232 5.17597433 -44.65795898 -2.47045898 C-29.28051827 -11.35456602 -14.83832261 -8.75002949 0 0 Z " fill="#89141E" transform="translate(252.0625,90)"/>
<path d="M0 0 C6.93 0 13.86 0 21 0 C22.37064045 3.6798996 23.74031112 7.36013993 25.10766602 11.04125977 C25.79794374 12.89833878 26.48977553 14.75483991 27.18164062 16.61132812 C29.28857894 22.28622037 31.36513556 27.9592985 33.24633789 33.71313477 C36.36768252 43.18434797 39.72593208 52.58073557 43 62 C43.2774707 62.80034668 43.55494141 63.60069336 43.84082031 64.42529297 C45.24035175 68.45807934 46.66444813 72.48113195 48.10888672 76.49804688 C48.79010407 78.41068123 49.4618642 80.32668645 50.12939453 82.24414062 C51.40323504 85.89790745 52.7002928 89.54286314 54 93.1875 C54.60509399 94.94501587 54.60509399 94.94501587 55.22241211 96.73803711 C57.55253994 103.19563268 59.49862536 107.76423415 65 112 C67.10754448 112.65484472 67.10754448 112.65484472 69 113 C69 115.31 69 117.62 69 120 C53.49 120 37.98 120 22 120 C22 117.69 22 115.38 22 113 C23.98 112.01 25.96 111.02 28 110 C28.36604018 104.18148633 27.20298588 100.04115263 25 94.6875 C22 87.19425676 22 87.19425676 22 85 C9.46 85.33 -3.08 85.66 -16 86 C-21.75020167 101.2069648 -21.75020167 101.2069648 -20 110 C-18.44643681 111.45031245 -18.44643681 111.45031245 -16.4375 111.9375 C-15.303125 112.288125 -14.16875 112.63875 -13 113 C-13 115.31 -13 117.62 -13 120 C-23.89 120 -34.78 120 -46 120 C-46 117.69 -46 115.38 -46 113 C-44.30729167 112.4140625 -42.61458333 111.828125 -40.921875 111.2421875 C-35.6577585 107.83977074 -33.77841168 101.26330433 -31.86328125 95.61328125 C-31.58235123 94.80657486 -31.3014212 93.99986847 -31.01197815 93.16871643 C-30.10361219 90.55284224 -29.20772534 87.9328973 -28.3125 85.3125 C-27.68755529 83.50192817 -27.06206331 81.69154515 -26.43603516 79.88134766 C-24.61067175 74.59209169 -22.80311566 69.29687451 -21 64 C-20.75002258 63.26726868 -20.50004517 62.53453735 -20.24249268 61.77960205 C-16.20517421 49.94444753 -12.19710312 38.12668949 -8.89453125 26.0625 C-7.54754897 21.45099735 -5.90441044 16.95657788 -4.24609375 12.44921875 C-2.7563583 8.32559367 -1.38649181 4.15947544 0 0 Z " fill="#F1EDEA" transform="translate(299,162)"/>
<path d="M0 0 C1.33575073 0.00580078 1.33575073 0.00580078 2.69848633 0.01171875 C8.27662848 0.08498815 13.5141515 0.57912898 18.96875 1.8046875 C22.77334301 2.52756017 26.45174508 2.37658213 30.3125 2.25 C30.3125 1.59 30.3125 0.93 30.3125 0.25 C31.9625 0.25 33.6125 0.25 35.3125 0.25 C35.3125 10.81 35.3125 21.37 35.3125 32.25 C33.3325 32.25 31.3525 32.25 29.3125 32.25 C29.17714844 31.63253906 29.04179687 31.01507813 28.90234375 30.37890625 C26.87816785 22.41553159 23.29042218 16.21031418 16.625 11.25 C10.73248585 8.70188577 4.64805586 8.63852544 -1.6875 9.25 C-5.22336711 10.74425916 -5.22336711 10.74425916 -7.6875 13.25 C-8.47125 13.95125 -9.255 14.6525 -10.0625 15.375 C-12.47651624 19.64595182 -12.30515542 23.45544982 -11.6875 28.25 C-9.43131905 35.15125937 -4.31484385 38.94880457 1.90625 42.16015625 C4.66843548 43.54292875 7.44711389 44.89063087 10.2265625 46.23828125 C23.65816195 52.77842251 35.31140296 59.55229269 40.625 74.0625 C43.84805325 84.66568743 42.28882125 92.9858628 38.3125 103.25 C33.62523696 111.97800704 26.49615311 117.73201524 17.3125 121.25 C11.67102773 122.91268831 6.5583005 123.63527599 0.6875 123.625 C-0.09085205 123.62628906 -0.8692041 123.62757813 -1.67114258 123.62890625 C-8.09289826 123.51332909 -13.49941965 122.26119309 -19.57421875 120.125 C-23.10841661 119.13169972 -26.03314463 118.9671962 -29.6875 119.25 C-30.6775 120.24 -30.6775 120.24 -31.6875 121.25 C-33.3375 121.25 -34.9875 121.25 -36.6875 121.25 C-36.6875 109.37 -36.6875 97.49 -36.6875 85.25 C-34.0475 85.25 -31.4075 85.25 -28.6875 85.25 C-28.58953125 85.806875 -28.4915625 86.36375 -28.390625 86.9375 C-26.63979229 95.87278418 -23.23704183 104.24375933 -15.63671875 109.73046875 C-8.60510105 113.83895896 -1.6824943 114.4147719 6.3125 113.25 C10.86465594 111.68798571 14.12010371 109.84715467 17.015625 105.96875 C19.43071756 100.90578487 19.09964944 95.71374321 18.3125 90.25 C14.40352333 80.77648006 4.02360613 77.01406256 -4.66845703 73.03271484 C-17.21415152 67.26689945 -29.03523779 60.60103315 -34.6875 47.25 C-36.80556863 37.51238577 -37.47672124 26.1875678 -32.234375 17.42578125 C-23.77886462 5.53255074 -14.76297448 -0.15486121 0 0 Z " fill="#F1EDEB" transform="translate(137.6875,160.75)"/>
<path d="M0 0 C3.99206643 3.9194834 6.86954698 7.0432047 7.25 12.75 C7.14183068 19.40842234 3.63946957 24.40975557 -1 29 C-3.26956991 30.79772585 -5.58699223 32.39132815 -8 34 C-6.69840449 38.57244431 -4.92447099 41.841016 -2.0625 45.625 C-1.37285156 46.54539063 -0.68320313 47.46578125 0.02734375 48.4140625 C1.25539473 50.02390359 2.4955463 51.6246753 3.75390625 53.2109375 C5 55 5 55 5 57 C5.66 57 6.32 57 7 57 C7.2475 56.360625 7.495 55.72125 7.75 55.0625 C8.46928208 53.30025891 9.22100219 51.54902506 10.05859375 49.83984375 C12.42498786 45.10997735 12.42498786 45.10997735 12.75 39.9375 C12.5025 39.298125 12.255 38.65875 12 38 C11.01 37.67 10.02 37.34 9 37 C9 35.35 9 33.7 9 32 C16.59 32 24.18 32 32 32 C32 33.65 32 35.3 32 37 C30.95199219 37.34417969 29.90398437 37.68835938 28.82421875 38.04296875 C24.24390714 40.01090027 22.32325392 43.15216863 19.8125 47.3125 C19.40064453 47.96412109 18.98878906 48.61574219 18.56445312 49.28710938 C17.75188109 50.57357445 16.94966501 51.86664758 16.15869141 53.16650391 C15.0693952 54.89019007 13.85594348 56.53360304 12.63671875 58.16796875 C10.77307029 60.83206266 10.77307029 60.83206266 11.04296875 63.61328125 C12.12230467 66.30501288 13.37058497 68.03767116 15.3125 70.1875 C16.20388672 71.19876953 16.20388672 71.19876953 17.11328125 72.23046875 C20.72399206 75.6169118 24.15983327 76.33997726 29 77 C28.8125 79.8125 28.8125 79.8125 28 83 C23.47592685 86.42927965 19.67143428 86.61790142 14.15234375 86.48828125 C9.01979823 85.6932773 4.90336775 83.39017598 1 80 C-0.2734375 77.796875 -0.2734375 77.796875 -1 76 C-3.49371089 77.48646467 -5.97531521 78.98440334 -8.4296875 80.53515625 C-15.56597074 84.99248332 -22.34485288 88.26621597 -31 87 C-37.62452686 85.11854424 -42.30020942 81.83475169 -46 76 C-49.15099947 69.61107693 -49.44888207 61.33961281 -47.1953125 54.58984375 C-43.08827886 47.46626471 -36.03181521 42.02348581 -29 38 C-30.04653189 34.69939943 -31.18459311 31.4870894 -32.5625 28.3125 C-35.44680326 21.66606206 -36.01531327 16.20625244 -33.8125 9.25 C-31.09403314 4.3755077 -26.75903386 -0.79710917 -21.2421875 -2.5625 C-13.94595663 -3.9861548 -6.38626718 -3.95948565 0 0 Z " fill="#F1ECEA" transform="translate(232,180)"/>
<path d="M0 0 C3.15108645 1.57554322 3.32211714 4.19496087 4.4609375 7.45703125 C4.6927774 8.11523361 4.92461731 8.77343597 5.16348267 9.45158386 C5.90751315 11.56955857 6.64125386 13.69094334 7.375 15.8125 C7.86133087 17.20009718 8.34830318 18.58746972 8.8359375 19.97460938 C10.23967748 23.97771636 11.62384154 27.98733739 13 32 C13.41024414 33.19415527 13.82048828 34.38831055 14.24316406 35.61865234 C14.79182129 37.23634521 14.79182129 37.23634521 15.3515625 38.88671875 C15.67205566 39.83119873 15.99254883 40.77567871 16.32275391 41.7487793 C17 44 17 44 17 46 C6.77 46 -3.46 46 -14 46 C-11.75266175 34.76330876 -11.75266175 34.76330876 -10.4140625 31.140625 C-10.1248291 30.34124512 -9.8355957 29.54186523 -9.53759766 28.71826172 C-9.23644043 27.90373535 -8.9352832 27.08920898 -8.625 26.25 C-6.03599935 19.07476962 -3.71968171 11.92056284 -1.7265625 4.5546875 C-1 2 -1 2 0 0 Z " fill="#8A1821" transform="translate(300,192)"/>
<path d="M0 0 C0.66 0 1.32 0 2 0 C3.14160156 1.43359375 3.14160156 1.43359375 4.390625 3.4375 C4.85339844 4.16839844 5.31617188 4.89929688 5.79296875 5.65234375 C6.27378906 6.42707031 6.75460938 7.20179688 7.25 8 C10.57015179 13.3067246 13.95744416 18.39519557 17.88964844 23.2734375 C19 25 19 25 19 28 C12.93888219 31.59177352 8.07112218 33.17259815 1 32 C-3.55145069 29.76565148 -5.75603319 27.48793361 -8 23 C-8.872676 17.71658946 -9.1588841 12.31776819 -6.72265625 7.4453125 C-5.24935484 5.47850915 -3.74741373 3.72477883 -2 2 C-1.34 1.34 -0.68 0.68 0 0 Z " fill="#8B1922" transform="translate(207,224)"/>
<path d="M0 0 C2.36497439 1.86708505 3.66030715 3.32061431 5 6 C5.55319423 11.04222938 5.58090722 14.89827941 3.1875 19.4375 C-0.10526316 23.29473684 -0.10526316 23.29473684 -2 25 C-5.8264785 23.72450717 -6.19581515 22.52992688 -8 19 C-10.14637465 14.02944817 -10.62864812 9.34350899 -10 4 C-7.97591319 -0.88162114 -4.90419267 -0.68830774 0 0 Z " fill="#8A1821" transform="translate(222,184)"/>
<path d="M0 0 C0.33 0.99 0.66 1.98 1 3 C-3.75 5.875 -3.75 5.875 -6 7 C-5.37162381 3.35541809 -4.14650034 0 0 0 Z " fill="#8F282E" transform="translate(209,224)"/>
</svg>
